<?xml version="1.0" encoding="utf-8"?>
<!-- Generator: Adobe Illustrator 25.0.1, SVG Export Plug-In . SVG Version: 6.00 Build 0)  -->
<svg version="1.1" id="Calque_1" xmlns="http://www.w3.org/2000/svg" xmlns:xlink="http://www.w3.org/1999/xlink" x="0px" y="0px"
	 viewBox="0 0 400 127.2" style="enable-background:new 0 0 400 127.2;" xml:space="preserve">
<style type="text/css">
	.st0{fill:#FEDAE0;}
	.st1{fill:#FDDBE1;}
	.st2{fill:#FDDAE1;}
	.st3{fill:#FDEBEE;}
	.st4{fill:#FDEEF1;}
	.st5{display:none;}
</style>
<g id="Calque_1-2">
	<path class="st0" d="M174.7,50c0.5,0.4,0.9,0.8,1.2,1.1c1.2,1,2.4,1.8,3.8,2.5c1.4,0.7,2.8,1.2,4.3,1.5c1.7,0.3,3.4,0.5,5.1,0.4
		c0.6,0,1.3-0.1,1.9-0.2c0.3,0,0.3,0.1,0.4,0.3c0.3,1.2,0.5,2.3,0.9,3.5c0.4,1.1,1,2.2,1.6,3.3s1.4,2.2,2.4,3.1
		c1.1,1.1,2.2,2.1,3.5,3c0.3,0.2,0.7,0.4,1,0.6c-9.1,4.4-20,0.6-24.4-8.5C174.8,57.3,174.2,53.6,174.7,50z"/>
	<path class="st0" d="M202.1,69.1c0.4-0.3,0.9-0.5,1.3-0.8c0.7-0.5,1.4-1,2-1.6c1.9-1.7,3.5-3.7,4.5-6c0.5-1.1,0.9-2.3,1.3-3.5
		c0.1-0.5,0.2-1,0.3-1.5c0-0.3,0.1-0.3,0.4-0.3c1.4,0.2,2.9,0.3,4.4,0.2c1.1-0.1,2.1-0.3,3.2-0.5c1.3-0.3,2.5-0.8,3.6-1.4
		c1.8-0.8,3.5-2,4.9-3.5l0.2-0.2c0.8,5.1-0.7,10.4-4,14.3c-2.6,3.2-6.2,5.3-10.2,6.2C210,71.4,205.8,70.9,202.1,69.1z"/>
	<path class="st0" d="M218.4,18.7c6.6,1.5,11.2,5.4,13.6,11.6c2.4,6.6,1.1,12.8-3.3,18.3h-0.1c-0.1-0.3-0.2-0.6-0.3-0.9
		c-0.3-1.4-0.9-2.8-1.6-4c-0.7-1.3-1.5-2.5-2.5-3.6c-1.1-1.2-2.3-2.3-3.7-3.2c-0.6-0.4-1.3-0.8-2-1.1c-0.3-0.2-0.4-0.3-0.2-0.5
		c1-1.9,1.6-3.9,1.8-6c0.2-1.7,0.2-3.4-0.1-5.1c-0.3-1.8-0.8-3.6-1.6-5.2C218.5,18.8,218.4,18.8,218.4,18.7z"/>
	<path class="st0" d="M184.5,18.9c-2.6,5.3-2.5,11.5,0.2,16.8c-5.3,2.5-9.1,7.4-10.3,13.1c-1.7-1.8-2.9-4-3.7-6.3
		c-1.2-3.6-1.2-7.5-0.1-11.2C173.3,22.9,180.4,19.3,184.5,18.9z"/>
	<path class="st0" d="M216.4,17.9c-0.5,0-1.1-0.1-1.6-0.1c-1.4,0-2.9,0.2-4.3,0.5c-1.5,0.3-3,0.8-4.4,1.6c-1.2,0.7-2.3,1.4-3.4,2.3
		c-0.4,0.3-0.8,0.6-1.1,1c-0.2,0.1-0.3,0.1-0.5,0c-1.2-1.2-2.6-2.3-4.2-3.1c-0.8-0.4-1.6-0.7-2.4-1c-0.8-0.3-1.7-0.6-2.6-0.8
		c-0.7-0.2-1.4-0.2-2.1-0.3c-0.5-0.1-0.9-0.1-1.4-0.1c-0.8,0-1.6,0.1-2.4,0.1c-0.2,0-0.4,0-0.6,0c4-6.2,9.5-9.3,16.8-9.1
		c6.2,0.3,11.8,3.7,14.9,9.1l-0.6,0.1L216.4,17.9z"/>
	<path class="st0" d="M188.2,54.9c-2,0-4.1-0.3-6-1c-2-0.7-4-1.7-5.6-3.1c-0.5-0.4-1-0.9-1.4-1.4c-0.1-0.1-0.2-0.3-0.2-0.5
		c0.4-2.4,1.4-4.6,2.8-6.5c0.6-0.9,1.3-1.8,2.1-2.6c1.4-1.4,3-2.6,4.8-3.5c0.3-0.2,0.4-0.1,0.6,0.2c0.3,0.5,0.6,1,1,1.5
		c0.5,0.7,1.1,1.4,1.7,2c0.8,0.8,1.7,1.6,2.6,2.3c0.8,0.6,1.7,1,2.5,1.5c0.2,0.1,0.3,0.3,0.2,0.5c-0.7,1.5-1.3,3.1-1.6,4.7
		c-0.2,0.8-0.3,1.6-0.3,2.3c0,1,0.1,2,0.1,3c0,0.1-0.1,0.2-0.2,0.2c-0.3,0.1-0.7,0.1-1,0.2L188.2,54.9z"/>
	<path class="st0" d="M218.1,36c1.1,0.7,2.1,1.4,3.1,2.1c1.2,0.8,2.2,1.8,3.1,3c0.6,0.9,1.2,1.7,1.7,2.7c0.4,0.7,0.7,1.5,1,2.2
		s0.5,1.4,0.7,2.1c0.1,0.3,0.2,0.6,0.2,0.9c0,0.2,0,0.4-0.1,0.5c-1,1.1-2.2,2-3.5,2.8c-1,0.6-2.1,1.2-3.3,1.6c-2,0.7-4.2,1-6.3,1.1
		c-0.9,0-1.9-0.2-2.8-0.2c-0.2,0-0.3-0.1-0.4-0.3v-0.1c0.1-1.3,0.1-2.7-0.1-4c-0.1-0.9-0.3-1.8-0.5-2.7c-0.3-1.1-0.8-2.2-1.2-3.3
		c-0.1-0.3-0.1-0.5,0.2-0.6c1.5-0.7,2.9-1.6,4.1-2.8c1.5-1.3,2.8-2.9,3.7-4.6L218.1,36z"/>
	<path class="st0" d="M201.1,23.7c-0.6,0.8-1.2,1.4-1.6,2.1c-0.6,0.8-1.1,1.6-1.5,2.5c-0.5,1-0.9,2-1.2,3c-0.2,0.7-0.4,1.3-0.5,2
		s-0.1,0.6-0.7,0.6c-1.2-0.1-2.4-0.2-3.6-0.2c-1.9,0-3.7,0.4-5.4,1.1c-0.3,0.1-0.7,0.2-1,0.4s-0.4,0-0.5-0.2c-0.4-1-0.8-2-1.1-3
		s-0.5-2-0.6-3c-0.1-0.9-0.1-1.8,0-2.7c0-1.9,0.3-3.7,1-5.4c0.3-0.7,0.6-1.4,0.8-2c0.1-0.3,0.4-0.4,0.6-0.4c1.8-0.2,3.7-0.2,5.5,0.1
		c1.4,0.2,2.8,0.6,4.2,1.2c1.3,0.5,2.6,1.3,3.8,2.2C199.8,22.6,200.4,23.2,201.1,23.7z"/>
	<path class="st0" d="M211.7,33.8c-1.5-0.1-3-0.1-4.5,0.2c-0.3,0-0.5,0-0.5-0.4c-0.2-1.4-0.6-2.9-1.2-4.2c-0.7-1.6-1.6-3.2-2.7-4.6
		c-0.3-0.4-0.6-0.7-0.9-1.1c0.8-0.6,1.5-1.3,2.3-1.9c1.3-0.9,2.7-1.7,4.1-2.2c1.5-0.6,3.1-1,4.7-1.1c1.1-0.1,2.1-0.1,3.2-0.1
		c0.5,0,0.9,0.1,1.4,0.2c0.1,0,0.2,0.1,0.2,0.2c0.4,1,0.9,2,1.2,3.1c0.4,1.1,0.6,2.3,0.6,3.5c0,0.8,0.1,1.7,0.1,2.5
		c0,1.9-0.4,3.8-1.1,5.6c-0.2,0.6-0.5,1.1-0.7,1.7c-0.1,0.2-0.2,0.2-0.4,0.2c-0.7-0.3-1.4-0.5-2.1-0.7c-1.1-0.4-2.2-0.6-3.4-0.6
		L211.7,33.8z"/>
	<path class="st0" d="M201.3,49.9c1,0.8,1.8,1.5,2.7,2.1c0.6,0.4,1.1,0.8,1.8,1.1c0.9,0.5,1.8,0.9,2.8,1.3c0.6,0.3,1.3,0.4,2,0.6
		c0.4,0.1,0.5,0.3,0.4,0.6c-0.2,1-0.5,2.1-0.8,3.1c-0.4,1.1-0.9,2.2-1.5,3.3c-0.5,0.8-1,1.5-1.6,2.2c-1.5,1.8-3.3,3.4-5.3,4.5
		c-0.1,0-0.3,0-0.4,0c-1.1-0.6-2.2-1.3-3.1-2.2c-0.9-0.8-1.7-1.7-2.5-2.6c-0.6-0.8-1.2-1.6-1.6-2.5c-1-1.8-1.7-3.7-2-5.7
		c-0.1-0.5,0-0.6,0.5-0.7c1.6-0.4,3.2-1,4.7-1.9c1.2-0.7,2.4-1.5,3.4-2.4C200.9,50.4,201.1,50.2,201.3,49.9z"/>
	<path class="st0" d="M201.5,24.1c0.6,0.8,1.2,1.5,1.8,2.3c1,1.4,1.7,3,2.2,4.6c0.3,0.9,0.5,1.9,0.7,2.8c0.1,0.3-0.1,0.4-0.4,0.5
		c-1,0.3-1.9,0.6-2.9,0.9c-0.4,0.1-0.7,0.3-1.1,0.5c-0.2,0.1-0.5,0.1-0.7,0l-3.3-1.2c-0.2-0.1-0.5-0.2-0.7-0.2
		c-0.3,0-0.4-0.2-0.3-0.5c0.3-1.7,0.8-3.3,1.5-4.9c0.6-1.4,1.4-2.7,2.4-3.8L201.5,24.1z"/>
	<path class="st0" d="M217.4,35.8c-1.1,2-2.5,3.8-4.3,5.2c-1,0.9-2.2,1.6-3.4,2.2c-0.4,0.2-0.5,0.1-0.7-0.2c-0.7-1-1.5-2.1-2.2-3.1
		c-0.1-0.2-0.2-0.4-0.2-0.7c0.1-1.1,0.2-2.2,0.2-3.3c0-0.4,0-0.7-0.1-1.1c0-0.2,0.1-0.4,0.3-0.4c1.4-0.3,2.8-0.3,4.2-0.2
		c1.2,0.2,2.4,0.3,3.6,0.6C215.8,35.2,216.6,35.5,217.4,35.8z"/>
	<path class="st0" d="M185.5,35.9c0.7-0.2,1.3-0.5,2-0.7c1.3-0.4,2.7-0.7,4.1-0.8c1.4-0.1,2.8-0.1,4.1,0.2c0.4,0.1,0.4,0.2,0.4,0.5
		c0,0.7-0.1,1.3-0.1,2c0,0.8,0.1,1.6,0.2,2.4c0.1,0.5-0.3,0.7-0.5,1c-0.6,0.9-1.3,1.8-1.9,2.7c-0.2,0.3-0.3,0.4-0.6,0.2
		c-1.5-0.8-2.9-1.8-4.2-3c-1.1-1-2-2.2-2.9-3.4C185.9,36.6,185.7,36.3,185.5,35.9z"/>
	<path class="st0" d="M211.1,54.5c-3.5-0.7-6.7-2.5-9.2-5c0-0.1,0-0.1,0.1-0.2c0.9-1,1.7-2.1,2.4-3.2c0.2-0.4,0.6-0.6,1-0.7
		c1.1-0.3,2.2-0.7,3.3-1c0.5-0.2,0.6-0.1,0.8,0.3c0.6,1.2,1,2.5,1.3,3.9c0.2,0.8,0.3,1.6,0.4,2.5C211.1,52.2,211.1,53.3,211.1,54.5z
		"/>
	<path class="st0" d="M191.9,54.5c-0.2-1.6-0.1-3.1,0.1-4.7c0.3-1.6,0.7-3.2,1.4-4.7c0.1-0.2,0.2-0.5,0.3-0.7
		c0.1-0.1,0.2-0.1,0.3-0.1c0.3,0.1,0.7,0.2,1,0.3c1,0.3,2,0.5,3,0.8c0.2,0,0.3,0.1,0.4,0.2c0.8,1.3,1.6,2.5,2.7,3.6l0.1,0.1
		C198.5,52.1,195.4,53.8,191.9,54.5z"/>
	<path class="st0" d="M201.4,45.3l-2.3-0.1c-0.5,0-0.7-0.4-0.9-0.8c-0.6-1.3-1-2.6-1.3-3.9c-0.1-0.3,0-0.6,0.2-0.8
		c1.1-1,2.3-2,3.5-2.8c0.4-0.3,1-0.3,1.4,0c1.3,0.8,2.5,1.8,3.6,2.8c0.2,0.2,0.3,0.5,0.2,0.8c-0.3,1.5-0.8,3-1.5,4.3
		c-0.1,0.3-0.4,0.4-0.7,0.4C202.9,45.3,202.2,45.3,201.4,45.3z"/>
	<path class="st1" d="M196.6,39.3v-4.5c1.4,0.2,2.8,0.7,4.1,1.3L196.6,39.3z"/>
	<path class="st1" d="M206.2,34.7c0.2,1.5,0.2,3-0.1,4.5l-4-3.1C203.5,35.5,204.8,35,206.2,34.7z"/>
	<path class="st2" d="M203.9,45.8c-0.7,1.2-1.5,2.3-2.5,3.3c-1-1-1.8-2.1-2.4-3.3H203.9z"/>
	<path class="st1" d="M205.1,45c0.5-1.5,1-2.9,1.5-4.4c0.3,0.3,0.6,0.6,0.8,1c0.4,0.6,0.9,1.3,1.3,2c0,0.1,0,0.3-0.1,0.4
		C207.5,44.4,206.3,44.8,205.1,45z"/>
	<path class="st1" d="M197.9,45c-1.2-0.4-2.4-0.8-3.5-1.2c-0.1-0.1-0.2-0.2-0.1-0.4c0.5-0.8,1.1-1.6,1.6-2.3
		c0.2-0.2,0.4-0.4,0.5-0.7L197.9,45z"/>
	<path class="st3" d="M216.4,17.9l0.2,0.1L216.4,17.9z"/>
	<path class="st4" d="M211.7,33.8l0.2,0.1L211.7,33.8z"/>
</g>
<g id="Calque_2_1_">
	<path d="M26.8,76v0.5h-0.6c-1.6,0-2.9,1.4-2.9,3v30.1c0,5.4-3.7,9.6-8.3,9.6v-0.4c3-1.1,5.3-5.2,5.3-9.3v-30c0-1.6-1.3-3-2.9-3
		h-0.6V76H26.8z"/>
	<path d="M52.1,99c0,6.6-5.1,11.1-11.4,11.1S29.4,105.6,29.4,99s5.1-11.1,11.4-11.1S52.1,92.4,52.1,99z M49.6,99
		c0-6-3.9-10.1-8.9-10.1S31.9,93,31.9,99s3.9,10,8.9,10S49.6,104.9,49.6,99z"/>
	<path d="M76,88.4v0.3h-0.5c-0.9,0-1.6,0.6-1.6,1.5v11.9c0,5-3.2,8-8.4,8s-8.4-3-8.4-7.9v-12c0-0.9-0.8-1.6-1.6-1.5H55v-0.3h6.4v0.3
		h-0.5c-0.9,0-1.6,0.7-1.6,1.5l0,0v11.5c0,4.6,2.4,7.4,6.2,7.4c4.2,0,6.9-2.7,6.9-7V90.3c0-0.9-0.8-1.5-1.6-1.5h-0.5v-0.3L76,88.4z"
		/>
	<path d="M87.6,88.4c4.2,0,6.8,2.2,6.8,5.7c0,3-2.2,5.6-5.2,5.9c1,0.7,1.9,1.7,2.6,2.8c0,0,1.6,2.2,2.9,3.9s2.3,2.7,4.2,2.7v0.3
		h-1.1c-2.5,0.1-4.9-1-6.2-3.1c-0.4-0.5-3-4.5-3.3-4.8c-0.9-1.2-2.1-2.4-3.4-2.4V99c0,0,0.8,0,1.9,0c1.9-0.1,4-0.1,5-3
		c0.2-0.7,0.3-1.3,0.2-2c-0.1-2.7-1.8-4.2-4.5-4.4c-1.9-0.1-3.6,0-3.9,0v17.9c0,1.1,0.8,1.9,1.9,1.9l0,0H86v0.3h-6.9v-0.3h0.5
		c1,0,1.9-0.8,1.9-1.9V90.6c0-1-0.9-1.9-1.9-1.9l0,0h-0.5v-0.3C79.1,88.4,87.6,88.4,87.6,88.4z"/>
	<path d="M123.6,88.4v0.3H123c-1,0-1.8,0.8-1.9,1.8v15.1c0,1.5,0.1,3,0.3,4.5h-0.3l-17.5-17.5v14.8c0,1,0.8,1.8,1.9,1.8h0.6v0.3
		h-6.4v-0.3h0.6c1,0,1.9-0.8,1.9-1.8V92.3c0-1.5-0.1-3-0.3-4.4h0.4l17.4,17.3V90.5c-0.1-1-0.9-1.8-1.9-1.8h-0.6v-0.4L123.6,88.4
		L123.6,88.4z"/>
	<path d="M144.6,107.2c0.4,1.1,1.4,2,2.6,2.1h0.2v0.3h-6.9v-0.3h0.3c0.8,0,1.6-0.8,1.2-2.1l-1.8-4.7h-8.5l-1.9,4.6
		c-0.5,1.4,0.4,2.2,1.2,2.2h0.3v0.3h-6.4v-0.3h0.3c1.2-0.1,2.2-0.9,2.6-2l7-15.7c0.6-1.2,1-2.4,1.3-3.7h0.3L144.6,107.2z
		 M139.7,101.4l-3.7-9.7l-3.9,9.7H139.7z"/>
	<path d="M164.8,104.6l-1.8,5.1h-13.7v-0.3h0.5c1.1,0,1.9-0.8,1.9-1.9V90.7c0-1.1-0.9-1.9-2-1.9h-0.4v-0.3h7v0.3h-0.4
		c-1.1,0-2,0.8-2,1.9v17.9h5.3c3.2,0,4.4-1.7,5.3-4H164.8z"/>
	<path d="M187.3,88.4c6.6,0,10.8,4,10.8,10.6s-4.2,10.6-10.8,10.6h-11.2v-0.3h0.4c1.1,0,1.9-0.9,1.9-1.9V90.7c0-1-0.8-1.9-1.9-1.9
		l0,0h-0.4v-0.3L187.3,88.4z M180.6,108.6h6.7c5.2,0,8.4-3.6,8.4-9.5s-3.2-9.6-8.4-9.6h-6.7V108.6z"/>
	<path d="M215,109.7h-13.7v-0.3h0.5c1.1,0,1.9-0.8,1.9-1.9V90.6c0-1-0.9-1.9-1.9-1.9c0,0,0,0-0.1,0h-0.5v-0.3h9.8
		c1.3,0,2.5-0.2,3.8-0.6v4h-0.4v-0.6c0.1-0.9-0.7-1.8-1.6-1.8c0,0,0,0-0.1,0h-7v9h5.8c0.7,0,1.4-0.5,1.4-1.3c0-0.1,0-0.1,0-0.2v-0.4
		h0.4v5H213V101c0.1-0.7-0.4-1.4-1.2-1.5h-0.1h-5.8v9h5.3c3.2,0,4.4-1.7,5.3-4h0.4L215,109.7z"/>
	<path d="M230.2,100.6c1,1,1.6,2.4,1.5,3.8c0,3.2-2.7,5.7-5.9,5.7h-0.1c-2,0-4.6-0.5-5.8-1.7c-0.2-1.5-0.1-3,0.3-4.4h0.4
		c-0.3,3.2,1.7,5.1,4.7,5c2.8-0.1,4.5-1.6,4.5-3.9c0-1.1-0.4-2.1-1.2-2.8l-6.7-5.5c-1.1-1-1.6-2.4-1.6-3.8c0.1-2.9,2.5-5.2,5.4-5.2
		h0.1c1.1,0,2.2,0.1,3.3,0.3h1.1l0.1,3.8H230c0-2-1.2-3.1-3.9-3.1c-2.2,0-4.1,1.5-4,3.4c0,1.1,0.5,2.1,1.3,2.8L230.2,100.6z"/>
	<path d="M256.9,76c5.8,0,9.4,3.5,9.4,9.3c0,5-3.9,9-8.9,9.1c-1.5,0-3-0.4-4.4-1.1v-0.5c0,0,7.5,1.7,9.6-5.2
		c0.2-0.9,0.3-1.9,0.3-2.9c-0.1-4.4-2.3-7.4-6.1-7.4h-5.3V106c0,1.6,1.3,3,2.9,3h0.6v0.5h-10V109h0.6c1.6,0,2.9-1.4,2.9-3V79.3
		c-0.1-1.5-1.4-2.7-2.9-2.8H245V76H256.9z"/>
	<path d="M284.8,107.2c0.4,1.1,1.4,2,2.6,2.1h0.3v0.3h-6.9v-0.3h0.2c0.8,0,1.6-0.8,1.2-2.1l-1.8-4.7h-8.5l-1.8,4.6
		c-0.5,1.4,0.4,2.2,1.1,2.2h0.3v0.3H265v-0.3h0.3c1.2-0.1,2.2-0.9,2.6-2l7-15.7c0.5-1.2,1-2.4,1.3-3.7h0.3L284.8,107.2z M280,101.4
		l-3.8-9.7l-3.9,9.7H280z"/>
	<path d="M305,104.6l-1.9,5.1h-13.7v-0.3h0.5c1.1,0,1.9-0.8,2-1.9V90.7c0-1.1-0.9-1.9-2-1.9h-0.4v-0.3h7v0.3h-0.4
		c-1.1,0-2,0.8-2,1.9v17.9h5.3c3.2,0,4.4-1.7,5.3-4H305z"/>
	<path d="M325.5,107.2c0.4,1.1,1.4,2,2.6,2.1h0.3v0.3h-6.9v-0.3h0.3c0.8,0,1.6-0.8,1.2-2.1l-1.8-4.7h-8.5l-1.9,4.6
		c-0.5,1.4,0.4,2.2,1.1,2.2h0.3v0.3h-6.4v-0.3h0.3c1.2-0.1,2.2-0.9,2.6-2l7-15.7c0.5-1.2,1-2.4,1.3-3.7h0.3L325.5,107.2z
		 M320.6,101.4l-3.8-9.7l-3.9,9.7H320.6z"/>
	<path d="M350.2,100.7l-0.4,4.8c-1.8,2.8-5.3,4.6-9.3,4.6c-6.8,0-11.1-4.3-11.1-11.1s4.3-11.1,11.1-11.1c2.8,0,5.5,0.7,7.9,2.2
		l0.7,5H349c-1-4.3-4.2-6.1-8.3-6.1c-5.4,0-8.7,3.8-8.7,10s3.3,10,8.7,10c5,0,9-2.5,9.3-8.3H350.2z"/>
	<path d="M367.3,109.7h-13.7v-0.3h0.5c1.1,0,1.9-0.8,1.9-1.9V90.6c0-1-0.9-1.9-1.9-1.9c0,0,0,0-0.1,0h-0.5v-0.3h9.8
		c1.3,0,2.5-0.2,3.8-0.6v4h-0.4v-0.6c0.1-0.9-0.7-1.8-1.6-1.8c0,0,0,0-0.1,0h-7v9h5.8c0.7,0,1.4-0.6,1.4-1.3c0-0.1,0-0.1,0-0.2v-0.4
		h0.4v5h-0.4V101c0.1-0.7-0.4-1.4-1.2-1.5h-0.1h-5.8v9h5.3c3.2,0,4.4-1.7,5.3-4h0.4L367.3,109.7z"/>
	<path d="M382.5,100.6c1,1,1.6,2.4,1.5,3.8c0,3.2-2.7,5.7-5.9,5.7H378c-2,0-4.6-0.5-5.8-1.7c-0.2-1.5-0.1-3,0.3-4.4h0.5
		c-0.3,3.2,1.7,5.1,4.7,5c2.8-0.1,4.5-1.6,4.5-3.9c0-1.1-0.4-2.1-1.2-2.8l-6.7-5.5c-1.1-1-1.6-2.4-1.6-3.8c0.1-2.9,2.5-5.3,5.5-5.2
		h0.1c1.1,0,2.2,0.1,3.3,0.3h1.1v3.8h-0.4c0-2-1.2-3.1-3.9-3.1c-2.2,0-4.1,1.5-4,3.4c0,1.1,0.5,2.1,1.3,2.8L382.5,100.6z"/>
	<path class="st5" d="M143.9,125.4v0.2h-0.3c-0.6,0-1.1,0.5-1.1,1.1v9.8c0,0.8,0.1,1.6,0.2,2.4h-0.2l-9.8-11v9.4
		c0,0.6,0.5,1.1,1.1,1.1h0.3v0.2h-3.7v-0.2h0.3c0.6,0,1.1-0.5,1.1-1.1v-9.8c0-0.8-0.1-1.6-0.2-2.4h0.2l9.8,11v-9.4
		c0-0.6-0.5-1.1-1.1-1.2h-0.3v-0.2L143.9,125.4z"/>
	<path class="st5" d="M152.9,138.7h-7.3v-0.2h0.2c0.6,0,1-0.4,1-1v-9c0-0.6-0.4-1-1-1h-0.2v-0.2h5.3c0.7,0,1.3-0.1,2-0.3v2.1h-0.2
		v-0.3c0-0.5-0.3-1-0.8-1c0,0,0,0-0.1,0H148v4.8h3.1c0.4,0,0.7-0.3,0.7-0.7v-0.1v-0.2h0.2v2.6h-0.2V134c0-0.4-0.2-0.8-0.6-0.8
		c0,0,0,0-0.1,0H148v4.8h2.8c1.3,0.1,2.5-0.8,2.9-2.1h0.2L152.9,138.7z"/>
	<path class="st5" d="M170.8,127.3v0.2h-0.1c-0.7,0-1.3,0.5-1.5,1.1l-2.6,8.2c-0.2,0.7-0.4,1.4-0.4,2.1H166l-3.4-9l-2.4,6.9
		c-0.2,0.7-0.3,1.4-0.4,2.1h-0.2l-3.8-10.4c-0.2-0.6-0.8-1-1.4-1h-0.1v-0.2h3.7v0.2h-0.1c-0.4,0-0.8,0.3-0.6,1l2.4,7.7l3.1-9.2h0.2
		l3.2,8.7l2-7c0.3-0.8-0.2-1.2-0.5-1.2h-0.1v-0.2L170.8,127.3z"/>
	<path class="st5" d="M177.3,133.9c0.5,0.5,0.8,1.3,0.8,2c0,1.7-1.4,3.1-3.1,3.1c0,0,0,0-0.1,0c-1.1,0.1-2.2-0.3-3.1-0.9
		c-0.1-0.8-0.1-1.6,0.2-2.4h0.2c-0.2,1.2,0.6,2.4,1.8,2.7c0.2,0,0.5,0,0.7,0c1.5,0,2.4-0.9,2.4-2.1c0-0.6-0.2-1.1-0.6-1.5l-3.6-2.9
		c-0.6-0.5-0.9-1.3-0.9-2.1c0-1.6,1.4-2.8,2.9-2.8h0.1c0.6,0,1.2,0,1.8,0.2h0.6v2.1h-0.2c0-1-0.7-1.7-2.1-1.7
		c-1.1-0.1-2.1,0.7-2.2,1.8c0,0.6,0.2,1.1,0.7,1.5L177.3,133.9z"/>
	<path class="st5" d="M185.2,134.2c0-0.8,0.7-1.4,1.4-1.3c0.8,0,1.4,0.7,1.3,1.4c0,0.7-0.6,1.3-1.4,1.3
		C185.8,135.7,185.2,135,185.2,134.2L185.2,134.2z"/>
	<path class="st5" d="M206.8,133.2l-0.2,3c-1,1.8-3,2.9-5.1,2.8c-3.8,0-6.4-2.7-6.4-6.9s2.6-6.9,6.6-6.9c1.5,0,3,0.4,4.3,1.3
		l0.4,2.7h-0.2c-0.5-2.1-2.4-3.5-4.5-3.4c-3.2,0-5.2,2.5-5.2,6.3s2.1,6.3,5.1,6.4c2.6,0,4.7-1.4,5.1-5.2L206.8,133.2z"/>
	<path class="st5" d="M218.3,137.4c0.2,0.6,0.7,1,1.4,1.1h0.1v0.2h-3.7v-0.2h0.1c0.4,0,0.9-0.4,0.6-1.1l-1-2.5h-4.5l-1,2.5
		c-0.3,0.8,0.2,1.2,0.6,1.2h0.1v0.2h-3.4v-0.2h0.1c0.6-0.1,1.2-0.5,1.4-1.1l3.7-8.4c0.3-0.6,0.5-1.3,0.7-2h0.2L218.3,137.4z
		 M215.7,134.3l-2-5.2l-2.1,5.2H215.7z"/>
	<path class="st5" d="M225.4,127.3c2.3,0,3.7,1.2,3.7,3.1c0,1.6-1.2,3-2.8,3.1c0.6,0.4,1,0.9,1.4,1.5c0,0,0.8,1.2,1.6,2.1
		s1.2,1.4,2.2,1.4v0.2h-0.6c-1.3,0.1-2.6-0.6-3.4-1.7c-0.2-0.3-1.6-2.4-1.8-2.6c-0.4-0.7-1.1-1.1-1.8-1.3V133h1c1,0,2.1,0,2.6-1.6
		c0.1-0.4,0.1-0.7,0.1-1.1c0-1.3-1-2.3-2.2-2.3c-0.1,0-0.1,0-0.2,0c-1-0.1-1.9,0-2.1,0v9.6c0,0.6,0.4,1,1,1h0.2v0.2h-3.7v-0.2h0.2
		c0.6,0,1-0.4,1-1v-9c0-0.6-0.4-1-1-1h-0.2v-0.2L225.4,127.3z"/>
	<path class="st5" d="M239.6,138.7h-7.3v-0.2h0.2c0.6,0,1-0.4,1-1v-9c0-0.6-0.4-1-1-1h-0.2v-0.2h5.3c0.7,0,1.3-0.1,2-0.3v2.1h-0.2
		v-0.3c0-0.5-0.3-1-0.8-1c0,0,0,0-0.1,0h-3.7v4.8h3.1c0.4,0,0.7-0.3,0.7-0.7v-0.1v-0.2h0.2v2.6h-0.2V134c0-0.4-0.2-0.8-0.6-0.8
		c0,0,0,0-0.1,0h-3.1v4.8h2.8c1.3,0.1,2.5-0.8,2.9-2.1h0.2L239.6,138.7z"/>
	<path class="st5" d="M249.3,138.7H242v-0.2h0.2c0.6,0,1-0.4,1-1v-9c0-0.6-0.4-1-1-1H242v-0.2h5.3c0.7,0,1.3-0.1,2-0.3v2.1h-0.2
		v-0.3c0-0.5-0.3-0.9-0.8-1h-0.1h-3.7v4.8h3.1c0.4,0,0.7-0.3,0.7-0.7v-0.1v-0.2h0.2v2.6h-0.2V134c0-0.4-0.2-0.8-0.6-0.8
		c0,0,0,0-0.1,0h-3.1v4.8h2.8c1.7,0,2.3-0.9,2.9-2.1h0.2L249.3,138.7z"/>
	<path class="st5" d="M256.3,127.3c2.3,0,3.7,1.2,3.7,3.1c0,1.6-1.2,3-2.8,3.1c0.6,0.4,1,0.9,1.4,1.5c0,0,0.8,1.2,1.6,2.1
		s1.2,1.4,2.2,1.4v0.2h-0.6c-1.3,0.1-2.6-0.6-3.4-1.7c-0.2-0.3-1.6-2.4-1.8-2.6c-0.4-0.7-1.1-1.1-1.8-1.3V133h1c1,0,2.1,0,2.7-1.6
		c0.1-0.4,0.1-0.7,0.1-1.1c0-1.3-1-2.3-2.2-2.3c-0.1,0-0.1,0-0.2,0c-1-0.1-1.9,0-2.1,0v9.6c0,0.6,0.4,1,1,1h0.2v0.2h-3.7v-0.2h0.3
		c0.6,0,1-0.4,1-1v-9c0-0.6-0.4-1-1-1h-0.2v-0.2L256.3,127.3z"/>
	<path class="st5" d="M268.7,133.9c0.5,0.5,0.8,1.2,0.8,2c0,1.7-1.4,3.1-3.1,3.1c0,0,0,0-0.1,0c-1.1,0.1-2.2-0.3-3.1-0.9
		c-0.1-0.8-0.1-1.6,0.2-2.4h0.2c-0.2,1.2,0.6,2.4,1.9,2.7c0.2,0,0.4,0,0.7,0c1.5,0,2.4-0.9,2.4-2.1c0-0.6-0.2-1.1-0.7-1.5l-3.6-2.9
		c-0.6-0.5-0.9-1.3-0.9-2.1c0-1.6,1.3-2.8,2.9-2.8h0.1c0.6,0,1.2,0,1.8,0.2h0.6v2.1h-0.2c0-1-0.7-1.7-2.1-1.7
		c-1.1-0.1-2.1,0.7-2.2,1.8c0,0.6,0.2,1.1,0.7,1.5L268.7,133.9z"/>
</g>
</svg>
