<?xml version="1.0" encoding="utf-8"?>
<!-- Generator: Adobe Illustrator 24.1.3, SVG Export Plug-In . SVG Version: 6.00 Build 0)  -->
<svg version="1.1" xmlns="http://www.w3.org/2000/svg" xmlns:xlink="http://www.w3.org/1999/xlink" x="0px" y="0px"
	 viewBox="0 0 336 66" style="enable-background:new 0 0 336 66;" xml:space="preserve">
<style type="text/css">
	.st0{display:none;}
	.st1{fill:#FEFEFE;}
	.st2{fill:#FEDAE1;}
	.st3{fill:#FEDBE1;}
	.st4{fill:#FEDBE2;}
</style>
<g id="Calque_3" class="st0">
	
		<image style="display:inline;overflow:visible;" width="336" height="66" xlink:href="C2193484.jpg"  transform="matrix(1 0 0 1 -8024 -8159)">
	</image>
	
		<image style="display:inline;overflow:visible;" width="336" height="66" xlink:href="C2193485.jpg"  transform="matrix(1 0 0 1 -0.1765 0)">
	</image>
</g>
<g id="Calque_1">
	<g>
		<path class="st1" d="M4.2,60.7c0-17.1,0-34.2,0-51.2c17.1,0,34.2,0,51.2,0c0,17.1,0,34.2,0,51.2C38.4,60.7,21.3,60.7,4.2,60.7z
			 M10.1,40.7c-0.8,4.9,1.5,10.6,6.3,13.5c4.6,2.8,9.7,2.4,12.9,0.6c-0.1-0.1-0.2-0.1-0.3-0.2c-2.1-1.3-3.8-3.1-5-5.3
			c-0.7-1.3-1.2-2.8-1.5-4.3c-0.1-0.4-0.2-0.5-0.5-0.4c-1.3,0.2-2.6,0.2-3.9,0c-2.2-0.3-4.2-1.1-6.1-2.4
			C11.3,41.7,10.7,41.2,10.1,40.7z M30.3,54.7c4,2.2,10.3,2.1,15.3-2.3c2.7-2.4,4.9-8.5,3.9-11.7c-3.4,3.2-7.5,4.5-12.2,3.8
			C36.6,48.9,34.2,52.3,30.3,54.7z M49.8,39.6c3.5-3.6,4.6-10,1.8-15.3c-1.8-3.3-6.9-7.1-9.2-6.7c0,0.1,0,0.1,0,0.2
			c1,2.3,1.4,4.7,1.2,7.2c-0.1,1.6-0.6,3.1-1.2,4.5c-0.2,0.3-0.1,0.5,0.2,0.7c1.7,1,3.3,2.2,4.5,3.7C48.4,35.7,49.3,37.5,49.8,39.6z
			 M17.2,17.6C13.8,18,9,21,7.2,26.3c-1.8,5.1-0.1,10.5,2.7,13.3c0-0.1,0-0.1,0.1-0.2c0.7-2.7,1.9-5,3.9-6.9c0.9-0.9,2-1.5,3.1-2.2
			c0.4-0.3,0.5-0.4,0.3-0.9c-1.3-2.8-1.6-5.7-0.9-8.7C16.5,19.7,16.8,18.7,17.2,17.6z M18.1,16.9c0.2,0,0.3,0,0.4,0
			c1.6-0.2,3.1-0.1,4.7,0.3c2.4,0.6,4.5,1.7,6.3,3.4c0.2,0.2,0.4,0.2,0.6,0c0.3-0.3,0.5-0.5,0.8-0.8c2.9-2.2,6.1-3.2,9.7-3.1
			c0.3,0,0.5,0.1,0.8,0.1c-1.6-3.4-5.9-6.6-10.8-6.8C24.7,9.8,20.2,13.2,18.1,16.9z M35.9,36.3c0.7,1.4,1.2,2.9,1.3,4.5
			c0.1,0.9,0.1,1.9,0,2.8c0,0.4,0,0.6,0.5,0.6c1.3,0.2,2.6,0.2,3.9,0c1.6-0.2,3.2-0.7,4.6-1.6c1-0.6,1.9-1.4,2.9-2.1
			c0.3-0.2,0.3-0.4,0.3-0.7c-0.9-4-3.2-7-6.8-9.1c-0.6-0.3-0.6-0.3-1,0.3c-0.9,1.4-1.9,2.6-3.2,3.6C37.6,35.2,36.8,35.7,35.9,36.3z
			 M17.6,30.3c-1,0.7-2,1.3-2.9,2c-2.3,2-3.8,4.4-4.4,7.3c-0.1,0.3,0,0.6,0.2,0.8c1.2,1.2,2.6,2.1,4.1,2.8c2.1,0.9,4.3,1.2,6.6,1.1
			c0.4,0,0.8-0.1,1.2-0.2c-0.3-2.8,0.2-5.4,1.5-7.8C21.2,34.9,19.1,32.9,17.6,30.3z M30,21.2c2.1,2.2,3.2,4.8,3.7,7.6
			c2.8-0.2,5.5-0.2,8.1,1c0.1-0.1,0.1-0.1,0.1-0.2c1.1-2.3,1.6-4.7,1.3-7.3c-0.1-1.6-0.6-3.1-1.2-4.5c-0.1-0.3-0.2-0.6-0.6-0.5
			c-1.4,0-2.7,0-4.1,0.1c-1.8,0.2-3.4,0.9-4.9,1.9C31.7,19.8,30.9,20.5,30,21.2z M29.6,21.2c-0.5-0.4-0.9-0.7-1.3-1.1
			c-3-2.4-6.4-3.2-10.2-2.8c-0.1,0-0.3,0.1-0.3,0.2c-0.8,1.5-1.3,3.1-1.4,4.7c-0.1,1.4-0.1,2.8,0.3,4.3c0.3,1.1,0.6,2.2,1.2,3.2
			c2.6-1.2,5.3-1.3,8.1-1C26.4,25.9,27.5,23.4,29.6,21.2z M22.8,44.4c0.2,1.5,0.7,2.9,1.4,4.3c1.2,2.4,3,4.3,5.4,5.6
			c0.2,0.1,0.4,0.1,0.6,0c1.4-0.8,2.6-1.8,3.6-3c1.7-2,2.7-4.3,3.1-6.8c-1.3-0.5-2.6-0.9-3.7-1.6c-1.2-0.6-2.2-1.5-3.3-2.3
			C26.4,43.5,25.7,43.5,22.8,44.4z M29.9,21.4c-0.2,0.3-0.4,0.4-0.5,0.6c-1.6,1.9-2.6,4-3,6.5c0,0.3,0,0.4,0.3,0.5
			c1,0.3,1.9,0.7,2.8,1c0.2,0.1,0.5,0,0.7,0c0.9-0.3,1.7-0.7,2.6-0.9c0.5-0.1,0.6-0.3,0.5-0.8c-0.3-1.6-0.8-3-1.7-4.4
			C31.1,23.1,30.5,22.3,29.9,21.4z M33.9,29.2c0,0.1,0,0.2,0,0.3c0,1-0.1,2-0.1,3c0,0.3,0.1,0.7,0.3,1c0.4,0.7,0.9,1.3,1.4,1.9
			c0.2,0.3,0.4,0.4,0.7,0.2c1.4-0.8,2.7-1.7,3.8-3c0.6-0.7,1.2-1.6,1.8-2.4C39.1,29,36.5,29,33.9,29.2z M18.1,30.2
			c0,0.1,0,0.1,0,0.1c1.3,2.4,3.2,4.1,5.5,5.4c0.2,0.1,0.4,0.1,0.5-0.2c0.4-0.7,0.9-1.4,1.4-2c0.3-0.4,0.3-0.7,0.3-1.1
			c-0.1-0.9-0.1-1.8-0.1-2.7c0-0.3,0-0.5-0.3-0.5c-0.2,0-0.3-0.1-0.5-0.1c-1.3,0-2.5,0-3.8,0.1C20.1,29.3,19.1,29.7,18.1,30.2z
			 M24.1,36.5c-1.1,2.3-1.7,4.8-1.4,7.5c2.7-0.6,4.9-1.8,6.7-3.6c-0.7-1-1.3-1.9-1.9-2.8c-0.1-0.1-0.2-0.2-0.4-0.2
			C26.2,37,25.2,36.7,24.1,36.5z M36.9,44c0.3-2.7-0.2-5.2-1.4-7.6c-0.7,0.2-1.4,0.6-2.1,0.7c-0.8,0.2-1.4,0.5-1.8,1.3
			c-0.4,0.7-0.9,1.3-1.4,2C32,42.2,34.2,43.4,36.9,44z M29.7,37.2c0.6,0,1.3-0.1,1.9-0.2c0.2,0,0.5-0.2,0.6-0.4c0.4-1,0.7-2,1-3
			c0.1-0.3,0-0.6-0.2-0.8c-0.9-0.7-1.8-1.4-2.7-2c-0.2-0.1-0.5-0.1-0.7,0c-0.9,0.7-1.9,1.3-2.8,2.1c-0.2,0.1-0.3,0.5-0.2,0.7
			c0.3,1.1,0.7,2.1,1.1,3.1c0.1,0.1,0.3,0.3,0.4,0.3C28.6,37.1,29.1,37.2,29.7,37.2z M29.4,30.3c-1-0.3-1.9-0.6-2.8-0.9
			c-0.1,0-0.4,0.2-0.4,0.3c0,1,0,1.9,0,3C27.3,31.9,28.3,31.2,29.4,30.3z M30.3,30.3c1,0.8,2,1.5,3,2.3c0-1.1,0-2.2,0-3.4
			C32.3,29.6,31.4,30,30.3,30.3z M28,37.6c0.6,0.8,1.1,1.5,1.8,2.4c0.7-0.9,1.2-1.7,1.9-2.5h-3.6C28.1,37.6,28.1,37.6,28,37.6z
			 M26,33.6c-0.6,0.9-1.1,1.6-1.7,2.5c1,0.3,1.9,0.6,2.9,0.9C26.8,35.8,26.4,34.8,26,33.6z M35.3,36.1c-0.6-0.9-1-1.7-1.7-2.3
			c-0.4,1.1-0.7,2.1-1.1,3.2C33.5,36.6,34.4,36.4,35.3,36.1z"/>
		<path class="st2" d="M10.1,40.7c0.7,0.5,1.2,1,1.9,1.5c1.8,1.3,3.8,2.1,6.1,2.4c1.3,0.2,2.6,0.2,3.9,0c0.3-0.1,0.5,0.1,0.5,0.4
			c0.3,1.5,0.8,2.9,1.5,4.3c1.2,2.2,2.9,4,5,5.3c0.1,0.1,0.2,0.1,0.3,0.2c-3.1,1.8-8.2,2.2-12.9-0.6C11.6,51.2,9.3,45.6,10.1,40.7z"
			/>
		<path class="st2" d="M30.3,54.7c3.9-2.4,6.2-5.8,6.9-10.2c4.7,0.7,8.8-0.6,12.2-3.8c1,3.2-1.2,9.3-3.9,11.7
			C40.7,56.8,34.4,56.9,30.3,54.7z"/>
		<path class="st2" d="M49.8,39.6c-0.5-2.1-1.4-4-2.7-5.7c-1.2-1.6-2.8-2.8-4.5-3.7c-0.3-0.2-0.4-0.4-0.2-0.7
			c0.7-1.4,1.1-2.9,1.2-4.5c0.2-2.5-0.1-4.9-1.2-7.2c0-0.1,0-0.1,0-0.2c2.3-0.4,7.4,3.4,9.2,6.7C54.4,29.6,53.3,36.1,49.8,39.6z"/>
		<path class="st2" d="M17.2,17.6c-0.3,1.1-0.7,2.1-0.9,3.1c-0.7,3-0.3,5.9,0.9,8.7c0.2,0.4,0.2,0.6-0.3,0.9
			c-1.1,0.7-2.2,1.4-3.1,2.2c-2,1.9-3.3,4.2-3.9,6.9c0,0.1,0,0.1-0.1,0.2c-2.7-2.8-4.5-8.1-2.7-13.3C9,21,13.8,18,17.2,17.6z"/>
		<path class="st2" d="M18.1,16.9c2-3.8,6.6-7.1,12.5-6.8c4.9,0.2,9.2,3.4,10.8,6.8c-0.3,0-0.6-0.1-0.8-0.1
			c-3.6-0.2-6.9,0.8-9.7,3.1c-0.3,0.2-0.6,0.5-0.8,0.8c-0.2,0.2-0.4,0.2-0.6,0c-1.8-1.7-3.9-2.8-6.3-3.4c-1.5-0.4-3.1-0.5-4.7-0.3
			C18.4,17,18.3,16.9,18.1,16.9z"/>
		<path class="st2" d="M35.9,36.3c0.9-0.6,1.7-1.1,2.5-1.7c1.3-1,2.4-2.2,3.2-3.6c0.4-0.6,0.4-0.6,1-0.3c3.6,2,5.8,5.1,6.8,9.1
			c0.1,0.3,0,0.5-0.3,0.7c-1,0.7-1.9,1.5-2.9,2.1c-1.4,0.9-3,1.4-4.6,1.6c-1.3,0.2-2.6,0.2-3.9,0c-0.4-0.1-0.5-0.3-0.5-0.6
			c0-0.9,0-1.9,0-2.8C37.1,39.2,36.6,37.7,35.9,36.3z"/>
		<path class="st2" d="M17.6,30.3c1.5,2.7,3.6,4.6,6.2,5.9c-1.2,2.5-1.8,5-1.5,7.8c-0.4,0.1-0.8,0.2-1.2,0.2
			c-2.3,0.1-4.5-0.1-6.6-1.1c-1.5-0.7-2.9-1.6-4.1-2.8c-0.2-0.2-0.3-0.5-0.2-0.8c0.7-2.9,2.2-5.4,4.4-7.3
			C15.6,31.5,16.6,30.9,17.6,30.3z"/>
		<path class="st2" d="M30,21.2c0.9-0.6,1.6-1.3,2.5-1.9c1.5-0.9,3.1-1.7,4.9-1.9c1.3-0.1,2.7-0.1,4.1-0.1c0.4,0,0.5,0.3,0.6,0.5
			c0.6,1.4,1,2.9,1.2,4.5c0.2,2.6-0.2,5-1.3,7.3c0,0-0.1,0.1-0.1,0.2c-2.5-1.3-5.3-1.2-8.1-1C33.3,25.9,32.1,23.4,30,21.2z"/>
		<path class="st2" d="M29.6,21.2c-2.1,2.2-3.2,4.7-3.7,7.6c-2.8-0.3-5.5-0.2-8.1,1c-0.6-1-0.9-2.1-1.2-3.2
			c-0.4-1.4-0.4-2.8-0.3-4.3c0.1-1.7,0.6-3.3,1.4-4.7c0.1-0.1,0.2-0.2,0.3-0.2c3.7-0.4,7.2,0.4,10.2,2.8
			C28.7,20.5,29.1,20.8,29.6,21.2z"/>
		<path class="st2" d="M22.8,44.4c2.9-0.9,3.6-0.9,7-3.8c1.1,0.8,2.2,1.7,3.3,2.3c1.2,0.6,2.5,1,3.7,1.6c-0.4,2.5-1.4,4.8-3.1,6.8
			c-1,1.2-2.2,2.2-3.6,3c-0.2,0.1-0.4,0.1-0.6,0c-2.4-1.3-4.1-3.2-5.4-5.6C23.5,47.4,23,45.9,22.8,44.4z"/>
		<path class="st2" d="M29.9,21.4c0.6,0.9,1.2,1.6,1.7,2.5c0.8,1.4,1.3,2.8,1.7,4.4c0.1,0.5,0,0.6-0.5,0.8c-0.9,0.3-1.7,0.6-2.6,0.9
			c-0.2,0.1-0.5,0.1-0.7,0c-0.9-0.3-1.9-0.7-2.8-1c-0.3-0.1-0.4-0.2-0.3-0.5c0.4-2.4,1.4-4.6,3-6.5C29.5,21.9,29.7,21.7,29.9,21.4z"
			/>
		<path class="st2" d="M33.9,29.2c2.7-0.3,5.3-0.2,7.9,1c-0.6,0.9-1.2,1.7-1.8,2.4c-1.1,1.2-2.4,2.2-3.8,3c-0.3,0.2-0.5,0.1-0.7-0.2
			c-0.4-0.6-0.9-1.2-1.4-1.9c-0.2-0.3-0.3-0.7-0.3-1c0-1,0.1-2,0.1-3C33.8,29.5,33.8,29.4,33.9,29.2z"/>
		<path class="st2" d="M18.1,30.2c1-0.5,2-0.8,3.1-0.9c1.2-0.1,2.5-0.1,3.8-0.1c0.2,0,0.3,0.1,0.5,0.1c0.4,0,0.3,0.3,0.3,0.5
			c0,0.9,0,1.8,0.1,2.7c0,0.4,0,0.7-0.3,1.1c-0.5,0.6-1,1.3-1.4,2c-0.2,0.2-0.3,0.3-0.5,0.2c-2.3-1.3-4.3-3-5.5-5.4
			C18.1,30.3,18.1,30.3,18.1,30.2z"/>
		<path class="st2" d="M24.1,36.5c1.1,0.3,2.1,0.6,3.1,0.8c0.1,0,0.3,0.1,0.4,0.2c0.6,0.9,1.3,1.8,1.9,2.8c-1.8,1.8-4.1,3.1-6.7,3.6
			C22.5,41.3,23,38.8,24.1,36.5z"/>
		<path class="st2" d="M36.9,44c-2.7-0.6-4.9-1.8-6.7-3.6c0.5-0.7,1.1-1.3,1.4-2c0.4-0.8,1-1.1,1.8-1.3c0.7-0.1,1.4-0.4,2.1-0.7
			C36.7,38.8,37.2,41.2,36.9,44z"/>
		<path class="st2" d="M29.7,37.2c-0.5,0-1.1-0.1-1.7-0.1c-0.2,0-0.4-0.2-0.4-0.3c-0.4-1-0.8-2.1-1.1-3.1c-0.1-0.2,0.1-0.6,0.2-0.7
			c0.9-0.7,1.8-1.4,2.8-2.1c0.2-0.1,0.5-0.1,0.7,0c0.9,0.6,1.8,1.3,2.7,2c0.3,0.2,0.4,0.5,0.2,0.8c-0.3,1-0.6,2-1,3
			c-0.1,0.2-0.4,0.4-0.6,0.4C30.9,37.2,30.3,37.2,29.7,37.2z"/>
		<path class="st3" d="M29.4,30.3c-1.1,0.8-2.1,1.6-3.1,2.4c0-1,0-2,0-3c0-0.1,0.3-0.3,0.4-0.3C27.5,29.7,28.4,30,29.4,30.3z"/>
		<path class="st3" d="M30.3,30.3c1-0.4,2-0.7,3-1.1c0,1.2,0,2.3,0,3.4C32.3,31.9,31.4,31.1,30.3,30.3z"/>
		<path class="st4" d="M28.1,37.5h3.6c-0.6,0.9-1.2,1.6-1.9,2.5c-0.7-0.9-1.2-1.7-1.8-2.4C28.1,37.6,28.1,37.6,28.1,37.5z"/>
		<path class="st4" d="M26,33.6c0.4,1.2,0.8,2.2,1.2,3.4c-1-0.3-1.8-0.6-2.9-0.9C24.9,35.2,25.4,34.4,26,33.6z"/>
		<path class="st4" d="M35.3,36.1c-1,0.3-1.9,0.6-2.8,0.9c0.4-1.1,0.7-2.2,1.1-3.2C34.4,34.3,34.8,35.2,35.3,36.1z"/>
	</g>
</g>
<g id="Calque_2">
	<g>
		<path d="M70.3,18.7l0,0.3h-0.4c-1.2,0-2.1,1-2.1,2.2v21.9c0,3.9-2.7,7-6,7v-0.3c2.2-0.8,3.9-3.8,3.9-6.8V21.2c0-1.2-1-2.2-2.1-2.2
			h-0.4l0-0.3L70.3,18.7z"/>
		<path d="M88.7,35.4c0,4.8-3.7,8.1-8.2,8.1c-4.6,0-8.2-3.3-8.2-8.1s3.7-8.1,8.2-8.1C85,27.3,88.7,30.6,88.7,35.4z M86.8,35.4
			c0-4.3-2.8-7.3-6.4-7.3c-3.6,0-6.4,3-6.4,7.3c0,4.3,2.8,7.3,6.4,7.3C84,42.7,86.8,39.7,86.8,35.4z"/>
		<path d="M106,27.7v0.3h-0.4c-0.6,0-1.1,0.5-1.2,1.1v8.6c0,3.6-2.3,5.8-6.1,5.8c-3.8,0-6.1-2.2-6.1-5.7V29c0-0.6-0.5-1.1-1.2-1.1
			h-0.4v-0.3h4.6v0.3H95c-0.6,0-1.2,0.5-1.2,1.1v8.3c0,3.3,1.7,5.4,4.5,5.4c3.1,0,5-1.9,5-5.1V29c0-0.6-0.5-1.1-1.2-1.1h-0.4v-0.3
			L106,27.7z"/>
		<path d="M114.4,27.7c3.1,0,5,1.6,5,4.2c0,2.2-1.6,4-3.8,4.2c0.5,0.3,1.4,1.2,1.9,2c0,0,1.1,1.6,2.1,2.8c1,1.2,1.7,1.9,3,2v0.3
			h-0.8c-2.7,0-3.8-1.3-4.5-2.3c-0.3-0.3-2.2-3.3-2.4-3.5c-0.7-0.9-1.5-1.7-2.5-1.7v-0.2c0,0,0.6,0,1.4,0c1.3,0,2.9,0,3.6-2.2
			c0.1-0.4,0.2-0.9,0.2-1.5c-0.1-1.9-1.3-3.1-3.2-3.2c-1.4-0.1-2.6,0-2.8,0v13c0,0.8,0.6,1.4,1.4,1.4h0.3l0,0.3h-5l0-0.3h0.3
			c0.8,0,1.4-0.6,1.4-1.4V29.3c0-0.8-0.6-1.3-1.4-1.3h-0.3l0-0.3L114.4,27.7z"/>
		<path d="M140.5,27.7l0,0.3h-0.4c-0.7,0-1.3,0.6-1.4,1.3v10.9c0,1.7,0.2,3.3,0.2,3.3h-0.2L126,30.8v10.7c0,0.7,0.6,1.3,1.4,1.3h0.4
			l0,0.3h-4.6l0-0.3h0.4c0.7,0,1.3-0.6,1.4-1.3v-11c0-1.8-0.2-3.2-0.2-3.2l0.3,0l12.7,12.6V29.2c0-0.7-0.6-1.3-1.4-1.3h-0.4l0-0.3
			L140.5,27.7z"/>
		<path d="M155.7,41.3c0.5,1.1,1.2,1.5,1.9,1.5h0.2v0.3h-5v-0.3h0.2c0.6,0,1.2-0.6,0.9-1.5l-1.3-3.4h-6.2l-1.3,3.3
			c-0.4,1,0.3,1.6,0.8,1.6h0.2v0.3h-4.6v-0.3h0.2c0.6,0,1.4-0.4,1.9-1.5l5-11.4c0,0,0.9-2,0.9-2.6h0.2L155.7,41.3z M152.2,37.1
			l-2.7-7l-2.8,7H152.2z"/>
		<path d="M170.3,39.4l-1.3,3.7h-9.9l0-0.3h0.3c0.8,0,1.4-0.6,1.4-1.4V29.3c0-0.8-0.7-1.4-1.5-1.4h-0.3l0-0.3h5.1l0,0.3h-0.3
			c-0.8,0-1.4,0.6-1.5,1.4v13h3.8c2.3,0,3.2-1.2,3.9-2.9L170.3,39.4z"/>
		<path d="M186.6,27.7c4.8,0,7.8,2.9,7.8,7.7c0,4.8-3,7.7-7.8,7.7h-8.1l0-0.3h0.3c0.8,0,1.3-0.6,1.4-1.4V29.3c0-0.8-0.6-1.4-1.4-1.4
			h-0.3l0-0.3L186.6,27.7z M181.8,42.3h4.9c3.7,0,6.1-2.6,6.1-6.9c0-4.3-2.3-6.9-6.1-6.9h-4.9V42.3z"/>
		<path d="M206.7,43.1h-9.9l0-0.3h0.3c0.8,0,1.4-0.6,1.4-1.4V29.3c0-0.8-0.6-1.3-1.4-1.3h-0.3l0-0.3h7.1c1,0,2.3-0.2,2.7-0.4v2.9
			l-0.3,0v-0.4c0-0.7-0.5-1.3-1.2-1.3h-5.1V35h4.2c0.7,0,1-0.5,1-1.1v-0.3l0.3,0v3.6l-0.3,0v-0.3c0-0.6-0.3-1-0.9-1.1h-4.2v6.5h3.8
			c2.3,0,3.2-1.2,3.9-2.9h0.3L206.7,43.1z"/>
		<path d="M217.7,36.6c0.8,0.7,1.1,1.8,1.1,2.8c0,2.3-1.9,4.1-4.3,4.1c-1.4,0-3.3-0.4-4.2-1.2c-0.2-0.7-0.1-2.2,0.2-3.2h0.3
			c-0.2,2.3,1.3,3.7,3.4,3.6c2-0.1,3.2-1.2,3.2-2.8c0-0.8-0.3-1.5-0.9-2l-4.9-4c-0.9-0.8-1.2-1.9-1.2-2.8c0-2.1,1.8-3.7,4-3.7
			c1.1,0,1.9,0.1,2.4,0.2h0.8l0,2.8h-0.3c0-1.4-0.9-2.3-2.8-2.3c-1.6,0-2.9,1.1-2.9,2.4c0,0.7,0.2,1.4,1,2L217.7,36.6z"/>
		<path d="M237.1,18.7c4.2,0,6.8,2.6,6.8,6.7c0,5.3-5.5,8.1-9.6,5.8l0-0.3c0,0,5.4,1.2,6.9-3.8c0.1-0.5,0.2-1.3,0.2-2.1
			c-0.1-3.2-1.6-5.3-4.5-5.3h-3.8v20.8c0,1.2,1,2.2,2.1,2.2h0.4l0,0.3h-7.2l0-0.3h0.4c1.2,0,2.1-1,2.1-2.2V21c-0.1-1.1-1-2-2.1-2
			h-0.4l0-0.3L237.1,18.7z"/>
		<path d="M257.3,41.3c0.5,1.1,1.2,1.5,1.9,1.5h0.2v0.3h-5v-0.3h0.2c0.6,0,1.2-0.6,0.9-1.5l-1.3-3.4H248l-1.3,3.3
			c-0.4,1,0.3,1.6,0.8,1.6h0.2v0.3H243v-0.3h0.2c0.6,0,1.4-0.4,1.9-1.5l5-11.4c0,0,0.9-2,0.9-2.6h0.2L257.3,41.3z M253.8,37.1
			l-2.7-7l-2.8,7H253.8z"/>
		<path d="M272,39.4l-1.3,3.7h-9.9l0-0.3h0.3c0.8,0,1.4-0.6,1.4-1.4V29.3c0-0.8-0.7-1.4-1.5-1.4h-0.3l0-0.3h5.1l0,0.3h-0.3
			c-0.8,0-1.4,0.6-1.5,1.4v13h3.8c2.3,0,3.2-1.2,3.9-2.9L272,39.4z"/>
		<path d="M286.8,41.3c0.5,1.1,1.2,1.5,1.9,1.5h0.2v0.3h-5v-0.3h0.2c0.6,0,1.2-0.6,0.9-1.5l-1.3-3.4h-6.2l-1.3,3.3
			c-0.4,1,0.3,1.6,0.8,1.6h0.2v0.3h-4.6v-0.3h0.2c0.6,0,1.4-0.4,1.9-1.5l5-11.4c0,0,0.9-2,0.9-2.6h0.2L286.8,41.3z M283.3,37.1
			l-2.7-7l-2.8,7H283.3z"/>
		<path d="M304.8,36.6l-0.3,3.5c-1.3,2.1-3.8,3.3-6.7,3.3c-4.9,0-8-3.1-8-8.1c0-5,3.1-8.1,8-8.1c2,0,4.2,0.6,5.7,1.6l0.5,3.6h-0.2
			c-0.7-3.1-3-4.4-6-4.4c-3.9,0-6.3,2.8-6.3,7.3c0,4.4,2.4,7.2,6.3,7.3c3.6,0,6.5-1.8,6.8-6L304.8,36.6z"/>
		<path d="M317.1,43.1h-9.9l0-0.3h0.3c0.8,0,1.4-0.6,1.4-1.4V29.3c0-0.8-0.6-1.3-1.4-1.3h-0.3l0-0.3h7.1c1,0,2.3-0.2,2.7-0.4v2.9
			l-0.3,0v-0.4c0-0.7-0.5-1.3-1.2-1.3h-5.1V35h4.2c0.7,0,1-0.5,1-1.1v-0.3l0.3,0v3.6l-0.3,0v-0.3c0-0.6-0.3-1-0.9-1.1h-4.2v6.5h3.8
			c2.3,0,3.2-1.2,3.9-2.9h0.3L317.1,43.1z"/>
		<path d="M328.1,36.6c0.8,0.7,1.1,1.8,1.1,2.8c0,2.3-1.9,4.1-4.3,4.1c-1.4,0-3.3-0.4-4.2-1.2c-0.2-0.7-0.1-2.2,0.2-3.2h0.3
			c-0.2,2.3,1.3,3.7,3.4,3.6c2-0.1,3.2-1.2,3.2-2.8c0-0.8-0.3-1.5-0.9-2l-4.9-4c-0.9-0.8-1.2-1.9-1.2-2.8c0-2.1,1.8-3.7,4-3.7
			c1.1,0,1.9,0.1,2.4,0.2h0.8l0,2.8H328c0-1.4-0.9-2.3-2.8-2.3c-1.6,0-2.9,1.1-2.9,2.4c0,0.7,0.2,1.4,1,2L328.1,36.6z"/>
	</g>
</g>
</svg>
